# ProBuilder 4.0.4
# https://unity3d.com/unity/features/worldbuilding/probuilder
# 14.04.2019 22:14:28

mtllib ./Grid10x10.mtl
o Grid10x10

g Grid10x10
v 0 0 0
v 0 0 0.8333334
v -0.8333334 0 0.8333334
v -0.8333334 0 0
v 0 0 1.666667
v -0.8333334 0 1.666667
v -1.666667 0 1.666667
v -1.666667 0 0.8333334
v -1.666667 0 0
v 0 0 2.5
v -0.8333334 0 2.5
v 0 0 3.333333
v -0.8333334 0 3.333333
v -1.666667 0 3.333333
v -1.666667 0 2.5
v 0 0 4.166667
v -0.8333334 0 4.166667
v 0 0 5
v -0.8333334 0 5
v -1.666667 0 5
v -1.666667 0 4.166667
v 0 0 5.833333
v -0.8333334 0 5.833333
v 0 0 6.666667
v -0.8333334 0 6.666667
v -1.666667 0 6.666667
v -1.666667 0 5.833333
v 0 0 7.5
v -0.8333334 0 7.5
v 0 0 8.333333
v -0.8333334 0 8.333333
v -1.666667 0 8.333333
v -1.666667 0 7.5
v 0 0 9.166666
v -0.8333334 0 9.166666
v 0 0 10
v -0.8333334 0 10
v -1.666667 0 10
v -1.666667 0 9.166666
v -2.5 0 0.8333334
v -2.5 0 0
v -2.5 0 1.666667
v -3.333333 0 1.666667
v -3.333333 0 0.8333334
v -3.333333 0 0
v -2.5 0 2.5
v -2.5 0 3.333333
v -3.333333 0 3.333333
v -3.333333 0 2.5
v -2.5 0 4.166667
v -2.5 0 5
v -3.333333 0 5
v -3.333333 0 4.166667
v -2.5 0 5.833333
v -2.5 0 6.666667
v -3.333333 0 6.666667
v -3.333333 0 5.833333
v -2.5 0 7.5
v -2.5 0 8.333333
v -3.333333 0 8.333333
v -3.333333 0 7.5
v -2.5 0 9.166666
v -2.5 0 10
v -3.333333 0 10
v -3.333333 0 9.166666
v -4.166667 0 0.8333334
v -4.166667 0 0
v -4.166667 0 1.666667
v -5 0 1.666667
v -5 0 0.8333334
v -5 0 0
v -4.166667 0 2.5
v -4.166667 0 3.333333
v -5 0 3.333333
v -5 0 2.5
v -4.166667 0 4.166667
v -4.166667 0 5
v -5 0 5
v -5 0 4.166667
v -4.166667 0 5.833333
v -4.166667 0 6.666667
v -5 0 6.666667
v -5 0 5.833333
v -4.166667 0 7.5
v -4.166667 0 8.333333
v -5 0 8.333333
v -5 0 7.5
v -4.166667 0 9.166666
v -4.166667 0 10
v -5 0 10
v -5 0 9.166666
v -5.833333 0 0.8333334
v -5.833333 0 0
v -5.833333 0 1.666667
v -6.666667 0 1.666667
v -6.666667 0 0.8333334
v -6.666667 0 0
v -5.833333 0 2.5
v -5.833333 0 3.333333
v -6.666667 0 3.333333
v -6.666667 0 2.5
v -5.833333 0 4.166667
v -5.833333 0 5
v -6.666667 0 5
v -6.666667 0 4.166667
v -5.833333 0 5.833333
v -5.833333 0 6.666667
v -6.666667 0 6.666667
v -6.666667 0 5.833333
v -5.833333 0 7.5
v -5.833333 0 8.333333
v -6.666667 0 8.333333
v -6.666667 0 7.5
v -5.833333 0 9.166666
v -5.833333 0 10
v -6.666667 0 10
v -6.666667 0 9.166666
v -7.5 0 0.8333334
v -7.5 0 0
v -7.5 0 1.666667
v -8.333333 0 1.666667
v -8.333333 0 0.8333334
v -8.333333 0 0
v -7.5 0 2.5
v -7.5 0 3.333333
v -8.333333 0 3.333333
v -8.333333 0 2.5
v -7.5 0 4.166667
v -7.5 0 5
v -8.333333 0 5
v -8.333333 0 4.166667
v -7.5 0 5.833333
v -7.5 0 6.666667
v -8.333333 0 6.666667
v -8.333333 0 5.833333
v -7.5 0 7.5
v -7.5 0 8.333333
v -8.333333 0 8.333333
v -8.333333 0 7.5
v -7.5 0 9.166666
v -7.5 0 10
v -8.333333 0 10
v -8.333333 0 9.166666
v -9.166666 0 0.8333334
v -9.166666 0 0
v -9.166666 0 1.666667
v -10 0 1.666667
v -10 0 0.8333334
v -10 0 0
v -9.166666 0 2.5
v -9.166666 0 3.333333
v -10 0 3.333333
v -10 0 2.5
v -9.166666 0 4.166667
v -9.166666 0 5
v -10 0 5
v -10 0 4.166667
v -9.166666 0 5.833333
v -9.166666 0 6.666667
v -10 0 6.666667
v -10 0 5.833333
v -9.166666 0 7.5
v -9.166666 0 8.333333
v -10 0 8.333333
v -10 0 7.5
v -9.166666 0 9.166666
v -9.166666 0 10
v -10 0 10
v -10 0 9.166666

vt 0 0
vt 0 0.8333334
vt 0.8333334 0.8333334
vt 0.8333334 0
vt 0 1.666667
vt 0.8333334 1.666667
vt 1.666667 1.666667
vt 1.666667 0.8333334
vt 1.666667 0
vt 0 2.5
vt 0.8333334 2.5
vt 0 3.333333
vt 0.8333334 3.333333
vt 1.666667 3.333333
vt 1.666667 2.5
vt 0 4.166667
vt 0.8333334 4.166667
vt 0 5
vt 0.8333334 5
vt 1.666667 5
vt 1.666667 4.166667
vt 0 5.833333
vt 0.8333334 5.833333
vt 0 6.666667
vt 0.8333334 6.666667
vt 1.666667 6.666667
vt 1.666667 5.833333
vt 0 7.5
vt 0.8333334 7.5
vt 0 8.333333
vt 0.8333334 8.333333
vt 1.666667 8.333333
vt 1.666667 7.5
vt 0 9.166666
vt 0.8333334 9.166666
vt 0 10
vt 0.8333334 10
vt 1.666667 10
vt 1.666667 9.166666
vt 2.5 0.8333334
vt 2.5 0
vt 2.5 1.666667
vt 3.333333 1.666667
vt 3.333333 0.8333334
vt 3.333333 0
vt 2.5 2.5
vt 2.5 3.333333
vt 3.333333 3.333333
vt 3.333333 2.5
vt 2.5 4.166667
vt 2.5 5
vt 3.333333 5
vt 3.333333 4.166667
vt 2.5 5.833333
vt 2.5 6.666667
vt 3.333333 6.666667
vt 3.333333 5.833333
vt 2.5 7.5
vt 2.5 8.333333
vt 3.333333 8.333333
vt 3.333333 7.5
vt 2.5 9.166666
vt 2.5 10
vt 3.333333 10
vt 3.333333 9.166666
vt 4.166667 0.8333334
vt 4.166667 0
vt 4.166667 1.666667
vt 5 1.666667
vt 5 0.8333334
vt 5 0
vt 4.166667 2.5
vt 4.166667 3.333333
vt 5 3.333333
vt 5 2.5
vt 4.166667 4.166667
vt 4.166667 5
vt 5 5
vt 5 4.166667
vt 4.166667 5.833333
vt 4.166667 6.666667
vt 5 6.666667
vt 5 5.833333
vt 4.166667 7.5
vt 4.166667 8.333333
vt 5 8.333333
vt 5 7.5
vt 4.166667 9.166666
vt 4.166667 10
vt 5 10
vt 5 9.166666
vt 5.833333 0.8333334
vt 5.833333 0
vt 5.833333 1.666667
vt 6.666667 1.666667
vt 6.666667 0.8333334
vt 6.666667 0
vt 5.833333 2.5
vt 5.833333 3.333333
vt 6.666667 3.333333
vt 6.666667 2.5
vt 5.833333 4.166667
vt 5.833333 5
vt 6.666667 5
vt 6.666667 4.166667
vt 5.833333 5.833333
vt 5.833333 6.666667
vt 6.666667 6.666667
vt 6.666667 5.833333
vt 5.833333 7.5
vt 5.833333 8.333333
vt 6.666667 8.333333
vt 6.666667 7.5
vt 5.833333 9.166666
vt 5.833333 10
vt 6.666667 10
vt 6.666667 9.166666
vt 7.5 0.8333334
vt 7.5 0
vt 7.5 1.666667
vt 8.333333 1.666667
vt 8.333333 0.8333334
vt 8.333333 0
vt 7.5 2.5
vt 7.5 3.333333
vt 8.333333 3.333333
vt 8.333333 2.5
vt 7.5 4.166667
vt 7.5 5
vt 8.333333 5
vt 8.333333 4.166667
vt 7.5 5.833333
vt 7.5 6.666667
vt 8.333333 6.666667
vt 8.333333 5.833333
vt 7.5 7.5
vt 7.5 8.333333
vt 8.333333 8.333333
vt 8.333333 7.5
vt 7.5 9.166666
vt 7.5 10
vt 8.333333 10
vt 8.333333 9.166666
vt 9.166666 0.8333334
vt 9.166666 0
vt 9.166666 1.666667
vt 10 1.666667
vt 10 0.8333334
vt 10 0
vt 9.166666 2.5
vt 9.166666 3.333333
vt 10 3.333333
vt 10 2.5
vt 9.166666 4.166667
vt 9.166666 5
vt 10 5
vt 10 4.166667
vt 9.166666 5.833333
vt 9.166666 6.666667
vt 10 6.666667
vt 10 5.833333
vt 9.166666 7.5
vt 9.166666 8.333333
vt 10 8.333333
vt 10 7.5
vt 9.166666 9.166666
vt 9.166666 10
vt 10 10
vt 10 9.166666

vn 0 1 0

g Grid10x10
usemtl DefaultHDMaterial
f 3/3/1 2/2/1 1/1/1 4/4/1
f 6/6/1 5/5/1 2/2/1 3/3/1
f 7/7/1 6/6/1 3/3/1 8/8/1
f 8/8/1 3/3/1 4/4/1 9/9/1
f 11/11/1 10/10/1 5/5/1 6/6/1
f 13/13/1 12/12/1 10/10/1 11/11/1
f 14/14/1 13/13/1 11/11/1 15/15/1
f 15/15/1 11/11/1 6/6/1 7/7/1
f 17/17/1 16/16/1 12/12/1 13/13/1
f 19/19/1 18/18/1 16/16/1 17/17/1
f 20/20/1 19/19/1 17/17/1 21/21/1
f 21/21/1 17/17/1 13/13/1 14/14/1
f 23/23/1 22/22/1 18/18/1 19/19/1
f 25/25/1 24/24/1 22/22/1 23/23/1
f 26/26/1 25/25/1 23/23/1 27/27/1
f 27/27/1 23/23/1 19/19/1 20/20/1
f 29/29/1 28/28/1 24/24/1 25/25/1
f 31/31/1 30/30/1 28/28/1 29/29/1
f 32/32/1 31/31/1 29/29/1 33/33/1
f 33/33/1 29/29/1 25/25/1 26/26/1
f 35/35/1 34/34/1 30/30/1 31/31/1
f 37/37/1 36/36/1 34/34/1 35/35/1
f 38/38/1 37/37/1 35/35/1 39/39/1
f 39/39/1 35/35/1 31/31/1 32/32/1
f 40/40/1 8/8/1 9/9/1 41/41/1
f 42/42/1 7/7/1 8/8/1 40/40/1
f 43/43/1 42/42/1 40/40/1 44/44/1
f 44/44/1 40/40/1 41/41/1 45/45/1
f 46/46/1 15/15/1 7/7/1 42/42/1
f 47/47/1 14/14/1 15/15/1 46/46/1
f 48/48/1 47/47/1 46/46/1 49/49/1
f 49/49/1 46/46/1 42/42/1 43/43/1
f 50/50/1 21/21/1 14/14/1 47/47/1
f 51/51/1 20/20/1 21/21/1 50/50/1
f 52/52/1 51/51/1 50/50/1 53/53/1
f 53/53/1 50/50/1 47/47/1 48/48/1
f 54/54/1 27/27/1 20/20/1 51/51/1
f 55/55/1 26/26/1 27/27/1 54/54/1
f 56/56/1 55/55/1 54/54/1 57/57/1
f 57/57/1 54/54/1 51/51/1 52/52/1
f 58/58/1 33/33/1 26/26/1 55/55/1
f 59/59/1 32/32/1 33/33/1 58/58/1
f 60/60/1 59/59/1 58/58/1 61/61/1
f 61/61/1 58/58/1 55/55/1 56/56/1
f 62/62/1 39/39/1 32/32/1 59/59/1
f 63/63/1 38/38/1 39/39/1 62/62/1
f 64/64/1 63/63/1 62/62/1 65/65/1
f 65/65/1 62/62/1 59/59/1 60/60/1
f 66/66/1 44/44/1 45/45/1 67/67/1
f 68/68/1 43/43/1 44/44/1 66/66/1
f 69/69/1 68/68/1 66/66/1 70/70/1
f 70/70/1 66/66/1 67/67/1 71/71/1
f 72/72/1 49/49/1 43/43/1 68/68/1
f 73/73/1 48/48/1 49/49/1 72/72/1
f 74/74/1 73/73/1 72/72/1 75/75/1
f 75/75/1 72/72/1 68/68/1 69/69/1
f 76/76/1 53/53/1 48/48/1 73/73/1
f 77/77/1 52/52/1 53/53/1 76/76/1
f 78/78/1 77/77/1 76/76/1 79/79/1
f 79/79/1 76/76/1 73/73/1 74/74/1
f 80/80/1 57/57/1 52/52/1 77/77/1
f 81/81/1 56/56/1 57/57/1 80/80/1
f 82/82/1 81/81/1 80/80/1 83/83/1
f 83/83/1 80/80/1 77/77/1 78/78/1
f 84/84/1 61/61/1 56/56/1 81/81/1
f 85/85/1 60/60/1 61/61/1 84/84/1
f 86/86/1 85/85/1 84/84/1 87/87/1
f 87/87/1 84/84/1 81/81/1 82/82/1
f 88/88/1 65/65/1 60/60/1 85/85/1
f 89/89/1 64/64/1 65/65/1 88/88/1
f 90/90/1 89/89/1 88/88/1 91/91/1
f 91/91/1 88/88/1 85/85/1 86/86/1
f 92/92/1 70/70/1 71/71/1 93/93/1
f 94/94/1 69/69/1 70/70/1 92/92/1
f 95/95/1 94/94/1 92/92/1 96/96/1
f 96/96/1 92/92/1 93/93/1 97/97/1
f 98/98/1 75/75/1 69/69/1 94/94/1
f 99/99/1 74/74/1 75/75/1 98/98/1
f 100/100/1 99/99/1 98/98/1 101/101/1
f 101/101/1 98/98/1 94/94/1 95/95/1
f 102/102/1 79/79/1 74/74/1 99/99/1
f 103/103/1 78/78/1 79/79/1 102/102/1
f 104/104/1 103/103/1 102/102/1 105/105/1
f 105/105/1 102/102/1 99/99/1 100/100/1
f 106/106/1 83/83/1 78/78/1 103/103/1
f 107/107/1 82/82/1 83/83/1 106/106/1
f 108/108/1 107/107/1 106/106/1 109/109/1
f 109/109/1 106/106/1 103/103/1 104/104/1
f 110/110/1 87/87/1 82/82/1 107/107/1
f 111/111/1 86/86/1 87/87/1 110/110/1
f 112/112/1 111/111/1 110/110/1 113/113/1
f 113/113/1 110/110/1 107/107/1 108/108/1
f 114/114/1 91/91/1 86/86/1 111/111/1
f 115/115/1 90/90/1 91/91/1 114/114/1
f 116/116/1 115/115/1 114/114/1 117/117/1
f 117/117/1 114/114/1 111/111/1 112/112/1
f 118/118/1 96/96/1 97/97/1 119/119/1
f 120/120/1 95/95/1 96/96/1 118/118/1
f 121/121/1 120/120/1 118/118/1 122/122/1
f 122/122/1 118/118/1 119/119/1 123/123/1
f 124/124/1 101/101/1 95/95/1 120/120/1
f 125/125/1 100/100/1 101/101/1 124/124/1
f 126/126/1 125/125/1 124/124/1 127/127/1
f 127/127/1 124/124/1 120/120/1 121/121/1
f 128/128/1 105/105/1 100/100/1 125/125/1
f 129/129/1 104/104/1 105/105/1 128/128/1
f 130/130/1 129/129/1 128/128/1 131/131/1
f 131/131/1 128/128/1 125/125/1 126/126/1
f 132/132/1 109/109/1 104/104/1 129/129/1
f 133/133/1 108/108/1 109/109/1 132/132/1
f 134/134/1 133/133/1 132/132/1 135/135/1
f 135/135/1 132/132/1 129/129/1 130/130/1
f 136/136/1 113/113/1 108/108/1 133/133/1
f 137/137/1 112/112/1 113/113/1 136/136/1
f 138/138/1 137/137/1 136/136/1 139/139/1
f 139/139/1 136/136/1 133/133/1 134/134/1
f 140/140/1 117/117/1 112/112/1 137/137/1
f 141/141/1 116/116/1 117/117/1 140/140/1
f 142/142/1 141/141/1 140/140/1 143/143/1
f 143/143/1 140/140/1 137/137/1 138/138/1
f 144/144/1 122/122/1 123/123/1 145/145/1
f 146/146/1 121/121/1 122/122/1 144/144/1
f 147/147/1 146/146/1 144/144/1 148/148/1
f 148/148/1 144/144/1 145/145/1 149/149/1
f 150/150/1 127/127/1 121/121/1 146/146/1
f 151/151/1 126/126/1 127/127/1 150/150/1
f 152/152/1 151/151/1 150/150/1 153/153/1
f 153/153/1 150/150/1 146/146/1 147/147/1
f 154/154/1 131/131/1 126/126/1 151/151/1
f 155/155/1 130/130/1 131/131/1 154/154/1
f 156/156/1 155/155/1 154/154/1 157/157/1
f 157/157/1 154/154/1 151/151/1 152/152/1
f 158/158/1 135/135/1 130/130/1 155/155/1
f 159/159/1 134/134/1 135/135/1 158/158/1
f 160/160/1 159/159/1 158/158/1 161/161/1
f 161/161/1 158/158/1 155/155/1 156/156/1
f 162/162/1 139/139/1 134/134/1 159/159/1
f 163/163/1 138/138/1 139/139/1 162/162/1
f 164/164/1 163/163/1 162/162/1 165/165/1
f 165/165/1 162/162/1 159/159/1 160/160/1
f 166/166/1 143/143/1 138/138/1 163/163/1
f 167/167/1 142/142/1 143/143/1 166/166/1
f 168/168/1 167/167/1 166/166/1 169/169/1
f 169/169/1 166/166/1 163/163/1 164/164/1

